<svg width="130" height="22" viewBox="0 0 130 22" fill="none" xmlns="http://www.w3.org/2000/svg">
<path d="M0 21.6686L0.369952 0.264251H4.99435L7.63687 13.7675L10.4644 0.264251H14.9302L15.3002 21.6686H12.1291L11.7856 7.16122L9.06383 21.6686H6.34204L3.48812 7.05551L3.19744 21.6686H0Z" fill="#23182E"/>
<path d="M24.4251 21.9593C22.8572 21.9593 21.6152 21.6774 20.6991 21.1137C19.7831 20.55 19.1224 19.7484 18.7173 18.709C18.3297 17.652 18.1359 16.3924 18.1359 14.9302V6.94981C18.1359 5.48762 18.3297 4.23683 18.7173 3.19744C19.1224 2.15805 19.7831 1.3653 20.6991 0.81918C21.6152 0.27306 22.8572 0 24.4251 0C26.0106 0 27.2614 0.281868 28.1775 0.845605C29.1112 1.39172 29.7718 2.18448 30.1594 3.22387C30.5645 4.24564 30.7671 5.48762 30.7671 6.94981V14.9302C30.7671 16.3924 30.5645 17.652 30.1594 18.709C29.7718 19.7484 29.1112 20.55 28.1775 21.1137C27.2614 21.6774 26.0106 21.9593 24.4251 21.9593ZM24.4251 18.8147C24.9888 18.8147 25.4028 18.6914 25.6671 18.4448C25.9313 18.1805 26.1075 17.837 26.1956 17.4142C26.2837 16.9738 26.3277 16.5069 26.3277 16.0136V5.89281C26.3277 5.39954 26.2837 4.9415 26.1956 4.5187C26.1075 4.0959 25.9313 3.76118 25.6671 3.51455C25.4028 3.25029 24.9888 3.11817 24.4251 3.11817C23.8966 3.11817 23.5002 3.25029 23.236 3.51455C22.9717 3.76118 22.7955 4.0959 22.7075 4.5187C22.6194 4.9415 22.5753 5.39954 22.5753 5.89281V16.0136C22.5753 16.5069 22.6106 16.9738 22.681 17.4142C22.7691 17.837 22.9453 18.1805 23.2095 18.4448C23.4738 18.6914 23.879 18.8147 24.4251 18.8147Z" fill="#23182E"/>
<path d="M33.6784 21.6686V0.264251H39.2277C40.6723 0.264251 41.9055 0.431611 42.9272 0.76633C43.9666 1.08343 44.7594 1.65598 45.3055 2.48396C45.8692 3.31195 46.1511 4.45704 46.1511 5.91923C46.1511 6.80007 46.0718 7.58402 45.9133 8.27107C45.7723 8.94051 45.5081 9.53067 45.1205 10.0416C44.7506 10.5348 44.2221 10.9312 43.535 11.2307L46.4946 21.6686H42.0288L39.5712 11.9706H38.0386V21.6686H33.6784ZM38.0386 9.38093H39.307C40.0117 9.38093 40.5666 9.26642 40.9718 9.0374C41.377 8.80838 41.6588 8.46486 41.8174 8.00682C41.9936 7.53117 42.0816 6.94981 42.0816 6.26276C42.0816 5.27622 41.8967 4.52751 41.5267 4.01662C41.1744 3.48812 40.5049 3.22387 39.5184 3.22387H38.0386V9.38093Z" fill="#23182E"/>
<path d="M49.0071 21.6686V0.264251H55.7984C57.0844 0.264251 58.1326 0.510886 58.9429 1.00416C59.7533 1.47981 60.3523 2.17567 60.7399 3.09174C61.145 4.00782 61.3476 5.11767 61.3476 6.42131C61.3476 7.95397 61.0834 9.15191 60.5549 10.0151C60.044 10.8784 59.3393 11.4949 58.4409 11.8649C57.5424 12.2172 56.5118 12.3934 55.3491 12.3934H53.3672V21.6686H49.0071ZM53.3672 9.32808H54.8999C55.5341 9.32808 56.0186 9.23119 56.3533 9.0374C56.7056 8.826 56.9434 8.50009 57.0668 8.05967C57.1901 7.61925 57.2517 7.05552 57.2517 6.36846C57.2517 5.71664 57.1989 5.17052 57.0932 4.7301C57.0051 4.28968 56.7937 3.94616 56.459 3.69952C56.1243 3.45289 55.5958 3.32957 54.8735 3.32957H53.3672V9.32808Z" fill="#23182E"/>
<path d="M63.4854 21.6686V0.264251H67.8455V9.06383H71.6243V0.264251H75.9845V21.6686H71.6243V12.182H67.8455V21.6686H63.4854Z" fill="#23182E"/>
<path d="M79.2773 21.6686V0.264251H83.6375V18.709H88.6582V21.6686H79.2773Z" fill="#23182E"/>
<path d="M90.0259 21.6686V18.7883L95.2317 10.7815C95.6193 10.1825 95.9804 9.60995 96.3151 9.06383C96.6675 8.51771 96.9493 7.96278 97.1607 7.39904C97.3897 6.81769 97.5043 6.2011 97.5043 5.54928C97.5043 4.86223 97.3721 4.34253 97.1079 3.9902C96.8436 3.62025 96.4649 3.43527 95.9716 3.43527C95.4431 3.43527 95.0379 3.58501 94.756 3.8845C94.4742 4.16637 94.2804 4.54513 94.1747 5.02078C94.069 5.49643 94.0161 6.01613 94.0161 6.57986V7.58402H90.0259V6.52701C90.0259 5.2586 90.2197 4.13113 90.6073 3.14459C91.0125 2.15805 91.6379 1.39172 92.4835 0.845605C93.3467 0.281868 94.4742 0 95.8659 0C97.7509 0 99.169 0.493269 100.12 1.47981C101.072 2.46635 101.547 3.84926 101.547 5.62856C101.547 6.49178 101.415 7.29334 101.151 8.03325C100.887 8.75553 100.534 9.4602 100.094 10.1473C99.6711 10.8167 99.2131 11.5126 98.7198 12.2348L94.5975 18.4448H100.966V21.6686H90.0259Z" fill="#23182E"/>
<path d="M103.552 21.6686V17.7841H107.357V21.6686H103.552Z" fill="#23182E"/>
<path d="M110.116 21.6686V0.264251H114.45V21.6686H110.116Z" fill="#23182E"/>
<path d="M117.728 21.6686V0.264251H122.96C124.775 0.264251 126.184 0.502078 127.188 0.977731C128.21 1.43577 128.932 2.16686 129.355 3.17102C129.778 4.15756 129.989 5.42596 129.989 6.97624V14.7717C129.989 16.3572 129.778 17.6608 129.355 18.6826C128.932 19.7044 128.219 20.4619 127.215 20.9551C126.228 21.4308 124.845 21.6686 123.066 21.6686H117.728ZM122.088 18.6297H123.013C123.823 18.6297 124.396 18.5064 124.731 18.2598C125.083 17.9955 125.303 17.6168 125.391 17.1235C125.479 16.6126 125.523 15.9872 125.523 15.2473V6.42131C125.523 5.68141 125.462 5.09125 125.338 4.65083C125.233 4.19279 125.004 3.85807 124.651 3.64667C124.317 3.43527 123.762 3.32957 122.987 3.32957H122.088V18.6297Z" fill="#23182E"/>
</svg>
