<svg width="477" height="22" viewBox="0 0 477 22" fill="none" xmlns="http://www.w3.org/2000/svg">
<g filter="url(#filter0_i_1228_221)">
<rect width="475.895" height="21" transform="translate(0.208008 0.896973)" fill="#FE005B"/>
<path d="M9.10596 16.1318C7.11279 16.1318 5.75439 14.9321 5.69727 13.2944H7.46826C7.57617 14.0562 8.24902 14.564 9.11865 14.564C10.1025 14.564 10.7817 13.9038 10.7817 12.9072C10.7817 11.8979 10.0962 11.2251 9.125 11.2251C8.41406 11.2251 7.87451 11.5361 7.55713 12.0503H5.84326L6.30029 6.7373H12.0576V8.33057H7.78564L7.58252 10.6855H7.69678C8.08398 10.127 8.73145 9.79053 9.63916 9.79053C11.3784 9.79053 12.6099 11.0664 12.6099 12.8628C12.6099 14.8052 11.207 16.1318 9.10596 16.1318ZM18.0562 8.84473C18.0562 10.2412 17.1929 11.1743 15.9106 11.1743C14.6348 11.1743 13.7651 10.2412 13.7651 8.84473C13.7651 7.46094 14.6284 6.52783 15.9106 6.52783C17.1929 6.52783 18.0562 7.45459 18.0562 8.84473ZM15.9106 9.95557C16.355 9.95557 16.6406 9.53027 16.6406 8.84473C16.6406 8.14648 16.3677 7.73389 15.9106 7.73389C15.46 7.73389 15.1807 8.15918 15.1807 8.84473C15.1807 9.53027 15.4663 9.95557 15.9106 9.95557ZM16.5645 15.897H14.7744L18.2339 11.0981L20.9888 6.7373H22.7725L19.2559 11.5742L16.5645 15.897ZM23.7373 13.7832C23.7373 15.1733 22.874 16.1064 21.5918 16.1064C20.3159 16.1064 19.4526 15.1733 19.4526 13.7832C19.4526 12.3931 20.3159 11.46 21.5918 11.46C22.874 11.46 23.7373 12.3867 23.7373 13.7832ZM21.5918 14.8877C22.0361 14.8877 22.3218 14.4624 22.3218 13.7769C22.3218 13.0786 22.0488 12.6724 21.5918 12.6724C21.1411 12.6724 20.8618 13.0913 20.8618 13.7769C20.8618 14.4624 21.1475 14.8877 21.5918 14.8877ZM32.7319 15.897H28.6187V6.7373H32.624C34.4014 6.7373 35.4614 7.60693 35.4614 9.02246C35.4614 9.99365 34.7441 10.8379 33.8047 10.9775V11.0918C35.0171 11.1807 35.8994 12.0947 35.8994 13.2754C35.8994 14.8813 34.687 15.897 32.7319 15.897ZM30.5356 8.20361V10.5332H31.9766C33.0112 10.5332 33.5762 10.1079 33.5762 9.37158C33.5762 8.6416 33.0493 8.20361 32.1353 8.20361H30.5356ZM30.5356 14.4307H32.2432C33.3477 14.4307 33.9443 13.9673 33.9443 13.1104C33.9443 12.2725 33.3286 11.8281 32.1987 11.8281H30.5356V14.4307ZM43.5166 15.897L42.8247 13.7134H39.6064L38.9019 15.897H36.9785L40.1587 6.7373H42.4121L45.5923 15.897H43.5166ZM41.168 8.6416L40.019 12.2344H42.4185L41.2822 8.6416H41.168ZM50.626 16.1318C47.9727 16.1318 46.3286 14.2974 46.3286 11.314C46.3286 8.33691 47.9663 6.50244 50.626 6.50244C52.7969 6.50244 54.46 7.94336 54.5996 9.93652H52.7334C52.5493 8.88281 51.7178 8.19092 50.626 8.19092C49.1851 8.19092 48.29 9.38428 48.29 11.314C48.29 13.2437 49.1851 14.4434 50.6323 14.4434C51.7305 14.4434 52.5557 13.7959 52.7397 12.7866H54.606C54.4473 14.7671 52.835 16.1318 50.626 16.1318ZM58.2876 15.897H56.3706V6.7373H58.2876V10.8188H58.4019L61.7852 6.7373H63.918L60.5791 10.7554L64.1528 15.897H61.855L59.1953 12.063L58.2876 13.1357V15.897ZM73.0903 15.897H71.1733V8.375H68.4248V6.7373H75.8389V8.375H73.0903V15.897ZM81.2217 6.50244C83.9258 6.50244 85.6206 8.34961 85.6206 11.314C85.6206 14.2847 83.9321 16.1318 81.2217 16.1318C78.5049 16.1318 76.8101 14.2847 76.8101 11.314C76.8101 8.34326 78.5303 6.50244 81.2217 6.50244ZM81.2217 8.18457C79.7363 8.18457 78.7715 9.39697 78.7715 11.314C78.7715 13.2246 79.7173 14.4497 81.2217 14.4497C82.7134 14.4497 83.6655 13.2246 83.6655 11.314C83.6655 9.39697 82.7134 8.18457 81.2217 8.18457ZM98.7476 15.897H96.8306V12.0693H92.7046V15.897H90.7876V6.7373H92.7046V10.4316H96.8306V6.7373H98.7476V15.897ZM104.975 6.50244C107.679 6.50244 109.374 8.34961 109.374 11.314C109.374 14.2847 107.685 16.1318 104.975 16.1318C102.258 16.1318 100.563 14.2847 100.563 11.314C100.563 8.34326 102.283 6.50244 104.975 6.50244ZM104.975 8.18457C103.489 8.18457 102.524 9.39697 102.524 11.314C102.524 13.2246 103.47 14.4497 104.975 14.4497C106.466 14.4497 107.418 13.2246 107.418 11.314C107.418 9.39697 106.466 8.18457 104.975 8.18457ZM117.181 14.2275V15.897H111.189V6.7373H113.106V14.2275H117.181ZM118.92 6.73096H122.526C125.249 6.73096 126.823 8.38135 126.823 11.2505C126.823 14.2275 125.268 15.897 122.526 15.897H118.92V6.73096ZM120.837 8.36865V14.2593H122.221C123.916 14.2593 124.868 13.2183 124.868 11.2822C124.868 9.42871 123.884 8.36865 122.221 8.36865H120.837ZM134.701 14.2593V15.897H128.632V6.7373H134.701V8.375H130.549V10.5142H134.466V12.0312H130.549V14.2593H134.701ZM138.636 8.28613V11.1045H140.318C141.283 11.1045 141.848 10.584 141.848 9.70166C141.848 8.83203 141.251 8.28613 140.299 8.28613H138.636ZM138.636 12.5771V15.897H136.719V6.7373H140.566C142.578 6.7373 143.816 7.85449 143.816 9.67627C143.816 10.8442 143.207 11.8599 142.153 12.2788L144.083 15.897H141.912L140.204 12.5771H138.636ZM145.333 13.3516H147.187C147.275 14.0942 148.024 14.5703 149.104 14.5703C150.1 14.5703 150.805 14.0879 150.805 13.396C150.805 12.812 150.348 12.4756 149.224 12.2344L148.031 11.9805C146.361 11.6313 145.542 10.7617 145.542 9.36523C145.542 7.63867 146.933 6.50244 149.046 6.50244C151.065 6.50244 152.493 7.63232 152.55 9.26367H150.748C150.659 8.54004 149.986 8.05762 149.059 8.05762C148.101 8.05762 147.466 8.50195 147.466 9.2002C147.466 9.76514 147.904 10.0889 148.977 10.3174L150.081 10.5522C151.922 10.9395 152.715 11.7329 152.715 13.1548C152.715 15.002 151.3 16.1318 149.002 16.1318C146.818 16.1318 145.403 15.0591 145.333 13.3516Z" fill="white"/>
<path d="M168.042 16.1318C166.048 16.1318 164.69 14.9321 164.633 13.2944H166.404C166.512 14.0562 167.185 14.564 168.054 14.564C169.038 14.564 169.717 13.9038 169.717 12.9072C169.717 11.8979 169.032 11.2251 168.061 11.2251C167.35 11.2251 166.81 11.5361 166.493 12.0503H164.779L165.236 6.7373H170.993V8.33057H166.721L166.518 10.6855H166.632C167.02 10.127 167.667 9.79053 168.575 9.79053C170.314 9.79053 171.545 11.0664 171.545 12.8628C171.545 14.8052 170.143 16.1318 168.042 16.1318ZM176.992 8.84473C176.992 10.2412 176.128 11.1743 174.846 11.1743C173.57 11.1743 172.701 10.2412 172.701 8.84473C172.701 7.46094 173.564 6.52783 174.846 6.52783C176.128 6.52783 176.992 7.45459 176.992 8.84473ZM174.846 9.95557C175.291 9.95557 175.576 9.53027 175.576 8.84473C175.576 8.14648 175.303 7.73389 174.846 7.73389C174.396 7.73389 174.116 8.15918 174.116 8.84473C174.116 9.53027 174.402 9.95557 174.846 9.95557ZM175.5 15.897H173.71L177.169 11.0981L179.924 6.7373H181.708L178.191 11.5742L175.5 15.897ZM182.673 13.7832C182.673 15.1733 181.81 16.1064 180.527 16.1064C179.251 16.1064 178.388 15.1733 178.388 13.7832C178.388 12.3931 179.251 11.46 180.527 11.46C181.81 11.46 182.673 12.3867 182.673 13.7832ZM180.527 14.8877C180.972 14.8877 181.257 14.4624 181.257 13.7769C181.257 13.0786 180.984 12.6724 180.527 12.6724C180.077 12.6724 179.797 13.0913 179.797 13.7769C179.797 14.4624 180.083 14.8877 180.527 14.8877ZM191.667 15.897H187.554V6.7373H191.56C193.337 6.7373 194.397 7.60693 194.397 9.02246C194.397 9.99365 193.68 10.8379 192.74 10.9775V11.0918C193.953 11.1807 194.835 12.0947 194.835 13.2754C194.835 14.8813 193.623 15.897 191.667 15.897ZM189.471 8.20361V10.5332H190.912C191.947 10.5332 192.512 10.1079 192.512 9.37158C192.512 8.6416 191.985 8.20361 191.071 8.20361H189.471ZM189.471 14.4307H191.179C192.283 14.4307 192.88 13.9673 192.88 13.1104C192.88 12.2725 192.264 11.8281 191.134 11.8281H189.471V14.4307ZM202.452 15.897L201.76 13.7134H198.542L197.837 15.897H195.914L199.094 6.7373H201.348L204.528 15.897H202.452ZM200.104 8.6416L198.955 12.2344H201.354L200.218 8.6416H200.104ZM209.562 16.1318C206.908 16.1318 205.264 14.2974 205.264 11.314C205.264 8.33691 206.902 6.50244 209.562 6.50244C211.732 6.50244 213.396 7.94336 213.535 9.93652H211.669C211.485 8.88281 210.653 8.19092 209.562 8.19092C208.121 8.19092 207.226 9.38428 207.226 11.314C207.226 13.2437 208.121 14.4434 209.568 14.4434C210.666 14.4434 211.491 13.7959 211.675 12.7866H213.542C213.383 14.7671 211.771 16.1318 209.562 16.1318ZM217.223 15.897H215.306V6.7373H217.223V10.8188H217.337L220.721 6.7373H222.854L219.515 10.7554L223.088 15.897H220.791L218.131 12.063L217.223 13.1357V15.897ZM232.026 15.897H230.109V8.375H227.36V6.7373H234.774V8.375H232.026V15.897ZM240.157 6.50244C242.861 6.50244 244.556 8.34961 244.556 11.314C244.556 14.2847 242.868 16.1318 240.157 16.1318C237.44 16.1318 235.746 14.2847 235.746 11.314C235.746 8.34326 237.466 6.50244 240.157 6.50244ZM240.157 8.18457C238.672 8.18457 237.707 9.39697 237.707 11.314C237.707 13.2246 238.653 14.4497 240.157 14.4497C241.649 14.4497 242.601 13.2246 242.601 11.314C242.601 9.39697 241.649 8.18457 240.157 8.18457ZM257.683 15.897H255.766V12.0693H251.64V15.897H249.723V6.7373H251.64V10.4316H255.766V6.7373H257.683V15.897ZM263.91 6.50244C266.614 6.50244 268.309 8.34961 268.309 11.314C268.309 14.2847 266.621 16.1318 263.91 16.1318C261.193 16.1318 259.499 14.2847 259.499 11.314C259.499 8.34326 261.219 6.50244 263.91 6.50244ZM263.91 8.18457C262.425 8.18457 261.46 9.39697 261.46 11.314C261.46 13.2246 262.406 14.4497 263.91 14.4497C265.402 14.4497 266.354 13.2246 266.354 11.314C266.354 9.39697 265.402 8.18457 263.91 8.18457ZM276.117 14.2275V15.897H270.125V6.7373H272.042V14.2275H276.117ZM277.856 6.73096H281.461C284.185 6.73096 285.759 8.38135 285.759 11.2505C285.759 14.2275 284.204 15.897 281.461 15.897H277.856V6.73096ZM279.773 8.36865V14.2593H281.157C282.852 14.2593 283.804 13.2183 283.804 11.2822C283.804 9.42871 282.82 8.36865 281.157 8.36865H279.773ZM293.636 14.2593V15.897H287.568V6.7373H293.636V8.375H289.485V10.5142H293.401V12.0312H289.485V14.2593H293.636ZM297.572 8.28613V11.1045H299.254C300.219 11.1045 300.784 10.584 300.784 9.70166C300.784 8.83203 300.187 8.28613 299.235 8.28613H297.572ZM297.572 12.5771V15.897H295.655V6.7373H299.501C301.514 6.7373 302.751 7.85449 302.751 9.67627C302.751 10.8442 302.142 11.8599 301.088 12.2788L303.018 15.897H300.847L299.14 12.5771H297.572ZM304.269 13.3516H306.122C306.211 14.0942 306.96 14.5703 308.039 14.5703C309.036 14.5703 309.74 14.0879 309.74 13.396C309.74 12.812 309.283 12.4756 308.16 12.2344L306.966 11.9805C305.297 11.6313 304.478 10.7617 304.478 9.36523C304.478 7.63867 305.868 6.50244 307.982 6.50244C310 6.50244 311.429 7.63232 311.486 9.26367H309.683C309.594 8.54004 308.921 8.05762 307.995 8.05762C307.036 8.05762 306.401 8.50195 306.401 9.2002C306.401 9.76514 306.839 10.0889 307.912 10.3174L309.017 10.5522C310.857 10.9395 311.651 11.7329 311.651 13.1548C311.651 15.002 310.235 16.1318 307.938 16.1318C305.754 16.1318 304.338 15.0591 304.269 13.3516Z" fill="white"/>
<path d="M326.978 16.1318C324.985 16.1318 323.626 14.9321 323.569 13.2944H325.34C325.448 14.0562 326.121 14.564 326.991 14.564C327.975 14.564 328.654 13.9038 328.654 12.9072C328.654 11.8979 327.968 11.2251 326.997 11.2251C326.286 11.2251 325.747 11.5361 325.429 12.0503H323.715L324.172 6.7373H329.93V8.33057H325.658L325.455 10.6855H325.569C325.956 10.127 326.604 9.79053 327.511 9.79053C329.25 9.79053 330.482 11.0664 330.482 12.8628C330.482 14.8052 329.079 16.1318 326.978 16.1318ZM335.928 8.84473C335.928 10.2412 335.065 11.1743 333.783 11.1743C332.507 11.1743 331.637 10.2412 331.637 8.84473C331.637 7.46094 332.5 6.52783 333.783 6.52783C335.065 6.52783 335.928 7.45459 335.928 8.84473ZM333.783 9.95557C334.227 9.95557 334.513 9.53027 334.513 8.84473C334.513 8.14648 334.24 7.73389 333.783 7.73389C333.332 7.73389 333.053 8.15918 333.053 8.84473C333.053 9.53027 333.338 9.95557 333.783 9.95557ZM334.437 15.897H332.646L336.106 11.0981L338.861 6.7373H340.645L337.128 11.5742L334.437 15.897ZM341.609 13.7832C341.609 15.1733 340.746 16.1064 339.464 16.1064C338.188 16.1064 337.325 15.1733 337.325 13.7832C337.325 12.3931 338.188 11.46 339.464 11.46C340.746 11.46 341.609 12.3867 341.609 13.7832ZM339.464 14.8877C339.908 14.8877 340.194 14.4624 340.194 13.7769C340.194 13.0786 339.921 12.6724 339.464 12.6724C339.013 12.6724 338.734 13.0913 338.734 13.7769C338.734 14.4624 339.02 14.8877 339.464 14.8877ZM350.604 15.897H346.491V6.7373H350.496C352.273 6.7373 353.333 7.60693 353.333 9.02246C353.333 9.99365 352.616 10.8379 351.677 10.9775V11.0918C352.889 11.1807 353.771 12.0947 353.771 13.2754C353.771 14.8813 352.559 15.897 350.604 15.897ZM348.408 8.20361V10.5332H349.849C350.883 10.5332 351.448 10.1079 351.448 9.37158C351.448 8.6416 350.921 8.20361 350.007 8.20361H348.408ZM348.408 14.4307H350.115C351.22 14.4307 351.816 13.9673 351.816 13.1104C351.816 12.2725 351.201 11.8281 350.071 11.8281H348.408V14.4307ZM361.389 15.897L360.697 13.7134H357.479L356.774 15.897H354.851L358.031 6.7373H360.284L363.464 15.897H361.389ZM359.04 8.6416L357.891 12.2344H360.291L359.154 8.6416H359.04ZM368.498 16.1318C365.845 16.1318 364.201 14.2974 364.201 11.314C364.201 8.33691 365.838 6.50244 368.498 6.50244C370.669 6.50244 372.332 7.94336 372.472 9.93652H370.605C370.421 8.88281 369.59 8.19092 368.498 8.19092C367.057 8.19092 366.162 9.38428 366.162 11.314C366.162 13.2437 367.057 14.4434 368.504 14.4434C369.603 14.4434 370.428 13.7959 370.612 12.7866H372.478C372.319 14.7671 370.707 16.1318 368.498 16.1318ZM376.16 15.897H374.243V6.7373H376.16V10.8188H376.274L379.657 6.7373H381.79L378.451 10.7554L382.025 15.897H379.727L377.067 12.063L376.16 13.1357V15.897ZM390.962 15.897H389.045V8.375H386.297V6.7373H393.711V8.375H390.962V15.897ZM399.094 6.50244C401.798 6.50244 403.493 8.34961 403.493 11.314C403.493 14.2847 401.804 16.1318 399.094 16.1318C396.377 16.1318 394.682 14.2847 394.682 11.314C394.682 8.34326 396.402 6.50244 399.094 6.50244ZM399.094 8.18457C397.608 8.18457 396.644 9.39697 396.644 11.314C396.644 13.2246 397.589 14.4497 399.094 14.4497C400.585 14.4497 401.538 13.2246 401.538 11.314C401.538 9.39697 400.585 8.18457 399.094 8.18457ZM416.62 15.897H414.703V12.0693H410.577V15.897H408.66V6.7373H410.577V10.4316H414.703V6.7373H416.62V15.897ZM422.847 6.50244C425.551 6.50244 427.246 8.34961 427.246 11.314C427.246 14.2847 425.557 16.1318 422.847 16.1318C420.13 16.1318 418.435 14.2847 418.435 11.314C418.435 8.34326 420.155 6.50244 422.847 6.50244ZM422.847 8.18457C421.361 8.18457 420.396 9.39697 420.396 11.314C420.396 13.2246 421.342 14.4497 422.847 14.4497C424.338 14.4497 425.291 13.2246 425.291 11.314C425.291 9.39697 424.338 8.18457 422.847 8.18457ZM435.053 14.2275V15.897H429.061V6.7373H430.978V14.2275H435.053ZM436.792 6.73096H440.398C443.121 6.73096 444.695 8.38135 444.695 11.2505C444.695 14.2275 443.14 15.897 440.398 15.897H436.792V6.73096ZM438.709 8.36865V14.2593H440.093C441.788 14.2593 442.74 13.2183 442.74 11.2822C442.74 9.42871 441.756 8.36865 440.093 8.36865H438.709ZM452.573 14.2593V15.897H446.504V6.7373H452.573V8.375H448.421V10.5142H452.338V12.0312H448.421V14.2593H452.573ZM456.508 8.28613V11.1045H458.19C459.155 11.1045 459.72 10.584 459.72 9.70166C459.72 8.83203 459.124 8.28613 458.171 8.28613H456.508ZM456.508 12.5771V15.897H454.591V6.7373H458.438C460.45 6.7373 461.688 7.85449 461.688 9.67627C461.688 10.8442 461.079 11.8599 460.025 12.2788L461.955 15.897H459.784L458.076 12.5771H456.508ZM463.205 13.3516H465.059C465.147 14.0942 465.896 14.5703 466.976 14.5703C467.972 14.5703 468.677 14.0879 468.677 13.396C468.677 12.812 468.22 12.4756 467.096 12.2344L465.903 11.9805C464.233 11.6313 463.415 10.7617 463.415 9.36523C463.415 7.63867 464.805 6.50244 466.918 6.50244C468.937 6.50244 470.365 7.63232 470.422 9.26367H468.62C468.531 8.54004 467.858 8.05762 466.931 8.05762C465.973 8.05762 465.338 8.50195 465.338 9.2002C465.338 9.76514 465.776 10.0889 466.849 10.3174L467.953 10.5522C469.794 10.9395 470.587 11.7329 470.587 13.1548C470.587 15.002 469.172 16.1318 466.874 16.1318C464.69 16.1318 463.275 15.0591 463.205 13.3516Z" fill="white"/>
</g>
<defs>
<filter id="filter0_i_1228_221" x="0.208008" y="0.896973" width="475.896" height="21" filterUnits="userSpaceOnUse" color-interpolation-filters="sRGB">
<feFlood flood-opacity="0" result="BackgroundImageFix"/>
<feBlend mode="normal" in="SourceGraphic" in2="BackgroundImageFix" result="shape"/>
<feColorMatrix in="SourceAlpha" type="matrix" values="0 0 0 0 0 0 0 0 0 0 0 0 0 0 0 0 0 0 127 0" result="hardAlpha"/>
<feOffset/>
<feGaussianBlur stdDeviation="4.27251"/>
<feComposite in2="hardAlpha" operator="arithmetic" k2="-1" k3="1"/>
<feColorMatrix type="matrix" values="0 0 0 0 0 0 0 0 0 0 0 0 0 0 0 0 0 0 0.25 0"/>
<feBlend mode="normal" in2="shape" result="effect1_innerShadow_1228_221"/>
</filter>
</defs>
</svg>
