<svg width="33" height="32" viewBox="0 0 33 32" fill="none" xmlns="http://www.w3.org/2000/svg">
<g clip-path="url(#clip0_1230_225)">
<path d="M10.8736 23.3263L10.0653 23.0711C9.58436 22.9193 9.33945 22.3751 9.53441 21.9016C10.1726 20.3517 10.6929 18.967 11.1419 17.5969C10.7879 17.5789 10.4246 17.5586 10.0506 17.5359C9.63863 17.511 9.30438 17.1846 9.2613 16.7659L9.16195 15.8007C9.10672 15.2641 9.5431 14.8082 10.0708 14.8464C10.7177 14.8933 11.3327 14.9333 11.9229 14.9662C12.3708 13.2893 12.7601 11.4982 13.1689 9.34076C13.2692 8.81104 13.814 8.49914 14.3079 8.69242L15.1963 9.04012C15.5816 9.19091 15.8042 9.60468 15.7212 10.017C15.337 11.9262 14.968 13.5447 14.5592 15.0668C15.8178 15.0891 16.9991 15.0681 18.198 14.9993C17.7963 13.4968 17.4326 11.898 17.054 10.017C16.971 9.60468 17.1936 9.19091 17.5789 9.04012L18.4674 8.69242C18.9613 8.49914 19.506 8.81104 19.6064 9.34076C20 11.4186 20.3757 13.1567 20.803 14.7801C21.4761 14.7068 22.1729 14.6193 22.9075 14.5169C23.4063 14.4474 23.8584 14.8295 23.8777 15.3426L23.9101 16.2049C23.9269 16.6508 23.6064 17.0369 23.1723 17.0926C22.6041 17.1657 22.0601 17.2319 21.5343 17.2914C22.0056 18.7619 22.5551 20.2364 23.2408 21.9016C23.4358 22.3751 23.1909 22.9193 22.7099 23.0711L21.9017 23.3263C21.4837 23.4582 21.0351 23.2423 20.87 22.8292C20.0861 20.8683 19.4693 19.1973 18.9415 17.5405C17.2102 17.6728 15.5838 17.7208 13.7859 17.6901C13.2686 19.2981 12.6656 20.9273 11.9053 22.8292C11.7401 23.2423 11.2915 23.4582 10.8736 23.3263Z" fill="#111111"/>
<path d="M29.991 15.1871C32.9678 23.6548 25.8955 29.884 21.9873 31.9402C28.1656 26.8231 25.7083 19.1125 25.4977 15.1871C25.3172 11.8224 28.4464 11.7523 29.991 15.1871Z" fill="#111111"/>
<path d="M5.33383 25.6877C-2.11682 20.6679 -0.166594 11.4553 1.73985 7.47656C-0.158023 15.264 6.42321 19.986 8.93895 23.01C11.0953 25.602 8.62649 27.523 5.33383 25.6877Z" fill="#111111"/>
<path d="M3.8133 9.2869C6.22394 0.641523 15.5939 -0.427847 19.9776 0.11814C11.9781 0.785954 9.57521 8.51366 7.49862 11.8535C5.71868 14.7162 3.11195 12.9863 3.8133 9.2869Z" fill="#111111"/>
<path d="M21.0361 29.8754C13.6228 34.9501 5.75715 29.7549 2.75098 26.523C9.3083 31.1461 16.1248 26.7693 19.8659 25.544C23.0726 24.4938 23.9553 27.492 21.0361 29.8754Z" fill="#111111"/>
<path d="M19.4571 2.42199C28.4454 2.38568 32.0256 11.0969 32.6921 15.4571C29.8719 7.95332 21.7701 7.74733 17.9861 6.66099C14.7427 5.72984 15.7008 2.75473 19.4571 2.42199Z" fill="#111111"/>
</g>
<defs>
<clipPath id="clip0_1230_225">
<rect width="33" height="32" fill="white"/>
</clipPath>
</defs>
</svg>
