<svg width="60" height="60" viewBox="0 0 60 60" fill="none" xmlns="http://www.w3.org/2000/svg">
<g filter="url(#filter0_d_1100_48)">
<path fill-rule="evenodd" clip-rule="evenodd" d="M32.3523 1.45519C32.4469 2.32218 31.7991 3.07864 30.9052 3.14444C29.1179 3.27647 28.0668 3.77512 27.431 4.31612C26.7919 4.85971 26.4404 5.55898 26.2653 6.3163C26.0871 7.08696 26.1034 7.87503 26.1757 8.49517C26.2112 8.79943 26.2585 9.0493 26.2952 9.21766C26.3137 9.30152 26.3292 9.36388 26.3391 9.40194L26.3492 9.43957L26.3501 9.44258C26.5963 10.2827 26.0996 11.1381 25.2382 11.3548C24.3746 11.572 23.4719 11.0654 23.2216 10.2236L24.7851 9.83006C23.2216 10.2236 23.2219 10.2244 23.2216 10.2236L23.2208 10.2201L23.2195 10.216L23.2165 10.2059L23.2083 10.1769C23.1728 10.0464 23.1405 9.91506 23.1115 9.78297C23.0377 9.44368 22.9808 9.10093 22.941 8.756C22.8438 7.92299 22.8058 6.76098 23.0872 5.5435C23.3717 4.3129 23.9934 2.98597 25.2405 1.92481C26.4909 0.861071 28.2386 0.175995 30.5622 0.00461863C31.4563 -0.0613946 32.2577 0.587987 32.3523 1.45519Z" fill="url(#paint0_linear_1100_48)"/>
<path d="M32.4814 15.3147L40.5961 25.0316C43.72 20.4945 42.8139 17.1231 41.9703 16.0045C40.8913 14.6782 38.5759 11.8495 37.9465 11.1445C37.1599 10.2633 35.269 8.90776 32.9983 10.7759C31.1818 12.2704 31.8967 14.4245 32.4814 15.3147Z" fill="url(#paint1_linear_1100_48)"/>
<path d="M36.1055 28.0014C38.5422 27.8401 40.1063 26.0425 40.5837 25.1641L37.1473 20.835C36.1094 20.9251 33.0479 20.9754 30.5305 21.6553C26.8359 22.653 25.2495 26.5551 24.8633 27.3636L29.4496 28.4957C30.6529 28.3981 33.6686 28.1626 36.1055 28.0014Z" fill="#FFF6A0"/>
<path d="M34.0683 33.539L26.4144 24.478C22.1422 30.3487 24.4327 33.3806 25.5616 34.571C26.6905 35.7611 30.6147 41.5277 33.9848 39.0272C36.6811 37.0268 35.1638 34.5348 34.0683 33.539Z" fill="url(#paint2_linear_1100_48)"/>
<path d="M41.7529 37.3623L46.8047 33.0161L51.3985 37.7964L46.3468 42.1426L41.7529 37.3623Z" fill="url(#paint3_linear_1100_48)"/>
<path d="M8.60254 23.1091L12.4922 17.7515L18.1545 21.4319L14.2648 26.7895L8.60254 23.1091Z" fill="#F5F5FF"/>
</g>
<defs>
<filter id="filter0_d_1100_48" x="0.00146103" y="0" width="59.9981" height="59.3447" filterUnits="userSpaceOnUse" color-interpolation-filters="sRGB">
<feFlood flood-opacity="0" result="BackgroundImageFix"/>
<feColorMatrix in="SourceAlpha" type="matrix" values="0 0 0 0 0 0 0 0 0 0 0 0 0 0 0 0 0 0 127 0" result="hardAlpha"/>
<feOffset dy="8.60108"/>
<feGaussianBlur stdDeviation="4.30054"/>
<feComposite in2="hardAlpha" operator="out"/>
<feColorMatrix type="matrix" values="0 0 0 0 0.286275 0 0 0 0 0.317647 0 0 0 0 0.960784 0 0 0 0.2 0"/>
<feBlend mode="normal" in2="BackgroundImageFix" result="effect1_dropShadow_1100_48"/>
<feBlend mode="normal" in="SourceGraphic" in2="effect1_dropShadow_1100_48" result="shape"/>
</filter>
<linearGradient id="paint0_linear_1100_48" x1="33.1712" y1="2.76363" x2="20.5237" y2="15.1597" gradientUnits="userSpaceOnUse">
<stop stop-color="#FFD964"/>
<stop offset="1" stop-color="white"/>
</linearGradient>
<linearGradient id="paint1_linear_1100_48" x1="36.9957" y1="9.76099" x2="37.6818" y2="25.1614" gradientUnits="userSpaceOnUse">
<stop stop-color="#FFE600"/>
<stop offset="1" stop-color="#FFE600"/>
</linearGradient>
<linearGradient id="paint2_linear_1100_48" x1="29.2532" y1="24.3516" x2="29.9393" y2="39.7523" gradientUnits="userSpaceOnUse">
<stop stop-color="#FFD964"/>
<stop offset="1" stop-color="#FFE600"/>
</linearGradient>
<linearGradient id="paint3_linear_1100_48" x1="44.6488" y1="35.5742" x2="58.8872" y2="46.9507" gradientUnits="userSpaceOnUse">
<stop stop-color="#FFE600"/>
<stop offset="1" stop-color="#FF7D34"/>
</linearGradient>
</defs>
</svg>
