<svg width="24" height="26" viewBox="0 0 24 26" fill="none" xmlns="http://www.w3.org/2000/svg">
<path d="M11.8 17.8C11.9675 17.8 12.1233 17.7237 12.4347 17.571L14.9382 16.3442C16.0461 15.8013 16.6 15.5298 16.6 15.1V9.7M11.8 17.8C11.6325 17.8 11.4767 17.7237 11.1653 17.571L8.66174 16.3442C7.55392 15.8013 7 15.5298 7 15.1V9.7M11.8 17.8V12.4M16.6 9.7C16.6 9.27015 16.0461 8.9987 14.9382 8.4558L12.4347 7.22895C12.1233 7.07632 11.9675 7 11.8 7C11.6325 7 11.4767 7.07632 11.1653 7.22895L8.66174 8.4558C7.55391 8.9987 7 9.27015 7 9.7M16.6 9.7C16.6 10.1299 16.0461 10.4013 14.9382 10.9442L12.4347 12.171C12.1233 12.3237 11.9675 12.4 11.8 12.4M7 9.7C7 10.1299 7.55391 10.4013 8.66174 10.9442L11.1653 12.171C11.4767 12.3237 11.6325 12.4 11.8 12.4M11.798 1C8.3786 1 6.16148 3.42279 3.53938 4.30588C2.47322 4.66496 1.94014 4.84449 1.72439 5.09758C1.50866 5.35067 1.44549 5.7205 1.31914 6.46016C-0.0329004 14.3752 2.92228 21.6928 9.97 24.541C10.7272 24.847 11.1059 25 11.8017 25C12.4974 25 12.876 24.847 13.6332 24.541C20.6806 21.6927 23.633 14.3752 22.2806 6.46016C22.1541 5.72037 22.091 5.35048 21.8751 5.09739C21.6593 4.8443 21.1263 4.66486 20.0602 4.30599C17.4371 3.42298 15.2175 1 11.798 1Z" stroke="url(#paint0_linear_410_20)" stroke-width="1.8" stroke-linejoin="round"/>
<defs>
<linearGradient id="paint0_linear_410_20" x1="-2.37659" y1="39.7433" x2="29.6757" y2="10.9563" gradientUnits="userSpaceOnUse">
<stop offset="0.26" stop-color="#40F0C1"/>
<stop offset="1" stop-color="#BFFD3E"/>
</linearGradient>
</defs>
</svg>
