<svg width="32" height="32" viewBox="0 0 32 32" fill="none" xmlns="http://www.w3.org/2000/svg">
<g clip-path="url(#clip0_729_62)">
<path d="M7.38025 5.55511L22.9722 4.18811C23.4196 4.14941 23.8702 4.19921 24.2983 4.33466C24.7264 4.47011 25.1236 4.68856 25.4673 4.97755C25.811 5.26653 26.0944 5.62037 26.3013 6.01888C26.5082 6.41739 26.6346 6.85276 26.6732 7.30011L28.0502 23.0601C28.1302 23.9639 27.8479 24.8625 27.2654 25.5582C26.683 26.2539 25.848 26.6899 24.9442 26.7701L9.35225 28.1371C8.90474 28.1759 8.45396 28.1262 8.02568 27.9908C7.59739 27.8553 7.2 27.6368 6.8562 27.3477C6.51241 27.0586 6.22895 26.7046 6.02202 26.3059C5.8151 25.9072 5.68877 25.4716 5.65025 25.0241L4.27525 9.26511C4.19533 8.36129 4.47763 7.46273 5.06009 6.76701C5.64254 6.07129 6.47646 5.63537 7.38025 5.55511ZM7.58025 7.82911C7.43096 7.84219 7.28571 7.88458 7.15281 7.95385C7.01992 8.02312 6.90198 8.11791 6.80576 8.2328C6.70954 8.34769 6.63691 8.48043 6.59204 8.62342C6.54716 8.76641 6.53092 8.91684 6.54425 9.06611L7.91925 24.8251C7.93209 24.9743 7.9742 25.1195 8.04317 25.2524C8.11214 25.3853 8.20662 25.5034 8.32121 25.5998C8.43581 25.6961 8.56827 25.769 8.71103 25.8142C8.85379 25.8594 9.00406 25.876 9.15325 25.8631L24.7442 24.4951C24.8934 24.482 25.0386 24.4397 25.1714 24.3705C25.3043 24.3013 25.4221 24.2066 25.5184 24.0918C25.6146 23.977 25.6872 23.8444 25.7322 23.7015C25.7771 23.5586 25.7934 23.4083 25.7802 23.2591L24.4042 7.49911C24.3781 7.19798 24.2334 6.91958 24.002 6.72512C23.7705 6.53066 23.4714 6.43605 23.1702 6.46211L7.58025 7.82911ZM10.8342 13.2191C10.6129 13.2376 10.3902 13.2123 10.1787 13.1447C9.96715 13.077 9.77104 12.9683 9.60155 12.8248C9.43206 12.6814 9.29251 12.5059 9.19088 12.3084C9.08925 12.111 9.02753 11.8954 9.00925 11.6741C8.98888 11.4528 9.0123 11.2297 9.07816 11.0175C9.14403 10.8052 9.25106 10.6081 9.39314 10.4372C9.53521 10.2663 9.70955 10.1251 9.9062 10.0217C10.1029 9.91818 10.318 9.85445 10.5392 9.83411C10.7606 9.81562 10.9835 9.84096 11.195 9.90868C11.4066 9.97639 11.6028 10.0852 11.7723 10.2287C11.9418 10.3723 12.0813 10.5479 12.1829 10.7455C12.2845 10.9431 12.3461 11.1587 12.3642 11.3801C12.4051 11.8268 12.2669 12.2715 11.98 12.6164C11.6931 12.9612 11.281 13.178 10.8342 13.2191ZM20.8992 12.3361C20.6779 12.3547 20.455 12.3295 20.2434 12.262C20.0317 12.1944 19.8355 12.0857 19.6659 11.9422C19.4963 11.7987 19.3567 11.6232 19.255 11.4257C19.1533 11.2282 19.0915 11.0125 19.0732 10.7911C19.0529 10.5698 19.0763 10.3467 19.1422 10.1345C19.208 9.92225 19.3151 9.72507 19.4571 9.55421C19.5992 9.38335 19.7736 9.24214 19.9702 9.13866C20.1669 9.03518 20.382 8.97145 20.6032 8.95111C20.8246 8.93262 21.0475 8.95796 21.259 9.02568C21.4706 9.09339 21.6668 9.20215 21.8363 9.34574C22.0058 9.48933 22.1453 9.66493 22.2469 9.8625C22.3485 10.0601 22.4101 10.2757 22.4282 10.4971C22.4486 10.7184 22.4252 10.9415 22.3593 11.1537C22.2935 11.366 22.1864 11.5632 22.0444 11.734C21.9023 11.9049 21.7279 12.0461 21.5313 12.1496C21.3346 12.253 21.1195 12.3168 20.8982 12.3371L20.8992 12.3361ZM11.7202 23.3731C11.499 23.3916 11.2762 23.3663 11.0647 23.2987C10.8531 23.231 10.657 23.1223 10.4876 22.9788C10.3181 22.8354 10.1785 22.6599 10.0769 22.4624C9.97525 22.265 9.91353 22.0494 9.89525 21.8281C9.87488 21.6068 9.89829 21.3837 9.96416 21.1715C10.03 20.9592 10.1371 20.7621 10.2791 20.5912C10.4212 20.4203 10.5956 20.2791 10.7922 20.1757C10.9889 20.0722 11.204 20.0085 11.4252 19.9881C11.6465 19.9696 11.8693 19.9949 12.0808 20.0626C12.2923 20.1302 12.4885 20.2389 12.6579 20.3824C12.8274 20.5259 12.967 20.7014 13.0686 20.8988C13.1702 21.0963 13.232 21.3118 13.2502 21.5331C13.2706 21.7544 13.2472 21.9775 13.1813 22.1897C13.1155 22.402 13.0084 22.5992 12.8664 22.77C12.7243 22.9409 12.5499 23.0821 12.3533 23.1856C12.1566 23.289 11.9415 23.3528 11.7202 23.3731ZM21.7852 22.4901C21.5639 22.5086 21.3412 22.4833 21.1297 22.4157C20.9181 22.348 20.722 22.2393 20.5526 22.0958C20.3831 21.9524 20.2435 21.7769 20.1419 21.5794C20.0403 21.382 19.9785 21.1664 19.9602 20.9451C19.9399 20.7238 19.9633 20.5007 20.0292 20.2885C20.095 20.0762 20.2021 19.8791 20.3441 19.7082C20.4862 19.5373 20.6606 19.3961 20.8572 19.2927C21.0539 19.1892 21.269 19.1255 21.4902 19.1051C21.7116 19.0866 21.9345 19.112 22.146 19.1797C22.3576 19.2474 22.5538 19.3562 22.7233 19.4997C22.8928 19.6433 23.0323 19.8189 23.1339 20.0165C23.2355 20.2141 23.2971 20.4297 23.3152 20.6511C23.3356 20.8724 23.3122 21.0955 23.2463 21.3077C23.1805 21.52 23.0734 21.7172 22.9314 21.888C22.7893 22.0589 22.6149 22.2001 22.4183 22.3036C22.2216 22.407 22.0065 22.4698 21.7852 22.4901ZM16.3092 17.8551C16.0879 17.8736 15.865 17.8483 15.6534 17.7806C15.4419 17.7128 15.2457 17.6041 15.0762 17.4605C14.9067 17.3169 14.7672 17.1413 14.6656 16.9437C14.564 16.7462 14.5024 16.5305 14.4842 16.3091C14.4434 15.8624 14.5816 15.4177 14.8685 15.0729C15.1554 14.728 15.5675 14.5112 16.0142 14.4701C16.2355 14.4516 16.4583 14.4769 16.6698 14.5446C16.8813 14.6122 17.0775 14.7209 17.2469 14.8644C17.4164 15.0079 17.556 15.1834 17.6576 15.3808C17.7592 15.5783 17.821 15.7938 17.8392 16.0151C17.8596 16.2364 17.8362 16.4595 17.7703 16.6717C17.7045 16.884 17.5974 17.0812 17.4554 17.252C17.3133 17.4229 17.1389 17.5641 16.9423 17.6676C16.7456 17.771 16.5305 17.8348 16.3092 17.8551ZM29.1832 6.82311L29.1682 6.82511C29.0483 6.83697 28.9272 6.82501 28.8119 6.78992C28.6966 6.75483 28.5893 6.6973 28.4963 6.62064C28.4033 6.54398 28.3263 6.4497 28.2699 6.34321C28.2134 6.23672 28.1785 6.12012 28.1672 6.00011C27.9022 3.45611 25.6442 1.61011 23.1222 1.87911H23.1152C22.9953 1.89098 22.8742 1.87906 22.7589 1.84405C22.6436 1.80903 22.5363 1.75161 22.4432 1.67506C22.3502 1.59851 22.2731 1.50435 22.2165 1.39797C22.1598 1.29159 22.1248 1.17508 22.1132 1.05511C22.0862 0.813121 22.156 0.570258 22.3074 0.379535C22.4588 0.188811 22.6794 0.0657144 22.9212 0.0371131H22.9232L22.9302 0.0361131C23.7707 -0.0530282 24.6205 0.0255237 25.4304 0.267217C26.2403 0.508909 26.9941 0.908936 27.6482 1.44411C28.976 2.53145 29.8198 4.09991 29.9952 5.80711C30.0217 6.0494 29.9511 6.29229 29.7989 6.48268C29.6468 6.67307 29.4254 6.79547 29.1832 6.82311ZM8.54725 32.0001H8.53925C7.69388 32.0148 6.85399 31.8616 6.06819 31.5496C5.28238 31.2375 4.56626 30.7727 3.96125 30.1821C2.73307 28.9823 2.02861 27.3459 2.00125 25.6291C1.99534 25.3856 2.08623 25.1497 2.25401 24.9731C2.42179 24.7965 2.65275 24.6937 2.89625 24.6871H2.91225C3.41525 24.6791 3.82925 25.0871 3.83825 25.5971C3.88225 28.1561 5.97225 30.1921 8.50825 30.1471H8.51425C8.63489 30.1459 8.75458 30.1685 8.86647 30.2136C8.97837 30.2587 9.08028 30.3255 9.16637 30.41C9.25247 30.4945 9.32106 30.5951 9.36822 30.7062C9.41539 30.8172 9.4402 30.9365 9.44125 31.0571C9.44743 31.3006 9.35679 31.5367 9.1892 31.7134C9.02161 31.8902 8.79075 31.9933 8.54725 32.0001Z" fill="white"/>
</g>
<defs>
<clipPath id="clip0_729_62">
<rect width="32" height="32" fill="white"/>
</clipPath>
</defs>
</svg>
