<svg width="408" height="347" viewBox="0 0 408 347" fill="none" xmlns="http://www.w3.org/2000/svg">
<path d="M64.5 302.5L159 325.5L92.5 278.5L64.5 302.5Z" fill="#7C6764"/>
<path d="M159 325.5V294L92.5 278.5L159 325.5Z" fill="#8F7773"/>
<path d="M40 199L32 218L64.5 302.5L92.5 278.5L40 199Z" fill="#816C69"/>
<path d="M204 203.5C202.4 203.5 173.333 216.167 159 222.5L204 255.5V203.5Z" fill="#403C3D"/>
<path d="M249.5 222.5L204 203.5V255.5L249.5 222.5Z" fill="#403C3D"/>
<path d="M191 314L204 255.5L159 222.5L191 314Z" fill="#343233"/>
<path d="M204 255.5L216.536 314L249.5 222.5L204 255.5Z" fill="#343233"/>
<path d="M159 222.5V294L191 314L159 222.5Z" fill="#020001"/>
<path d="M159 294V222.5L92.5 278.5L159 294Z" fill="#9B8681"/>
<path d="M138.5 211.5L109.5 221L92.5 278.5L159 222.5L138.5 211.5Z" fill="#AB938F"/>
<path d="M109.5 221L96.5 199H40L92.5 278.5L109.5 221Z" fill="#A28984"/>
<path d="M100.5 183.5L63 148.5L40 199H96.5L100.5 183.5Z" fill="#9F8882"/>
<path d="M7.5 180L40 199L63 148.5L7.5 180Z" fill="#857170"/>
<path d="M0 77L7.5 180L63 148.5L0 77Z" fill="#94817D"/>
<path d="M63 148.5L83 59.5L0 77L63 148.5Z" fill="#B4A29E"/>
<path d="M130 72.5L83 59.5L63 148.5L130 72.5Z" fill="#887770"/>
<path d="M130 127V72.5L63 148.5L130 127Z" fill="#9D8982"/>
<path d="M130 72.5V127L204 145.5L130 72.5Z" fill="#C0ADA7"/>
<path d="M204 53L130 72.5L204 145.5L278.09 72.5L204 53Z" fill="#C1B4AE"/>
<path d="M204 53L164.5 0L130 72.5L204 53Z" fill="#C2AFA9"/>
<path d="M164.5 0L103 45L130 72.5L164.5 0Z" fill="#99857E"/>
<path d="M243 0H164.5L204 53L243 0Z" fill="#A08D87"/>
<path d="M243 0L204 53L278.09 72.5L243 0Z" fill="#C2AFA9"/>
<path d="M306 45L243 0L278.09 72.5L306 45Z" fill="#99857E"/>
<path d="M325.5 59.5L306 45L278.09 72.5L325.5 59.5Z" fill="#907D76"/>
<path d="M325.5 59.5L278.09 72.5L345 148.5L325.5 59.5Z" fill="#887770"/>
<path d="M325.5 59.5L345 148.5L407.5 77L325.5 59.5Z" fill="#B4A29E"/>
<path d="M407.5 77L357.5 34.5L306 45L325.5 59.5L407.5 77Z" fill="#B7A5A1"/>
<path d="M400 180L407.5 77L345 148.5L400 180Z" fill="#94817D"/>
<path d="M368 199L400 180L345 148.5L368 199Z" fill="#857170"/>
<path d="M306 183.5L311.5 199H368L345 148.5L306 183.5Z" fill="#9F8882"/>
<path d="M285.5 175L306 183.5L345 148.5L278.09 127L285.5 175Z" fill="#A39089"/>
<path d="M345 148.5L278.09 72.5V127L345 148.5Z" fill="#9D8982"/>
<path d="M278.09 72.5L204 145.5L278.09 127V72.5Z" fill="#C0ADA7"/>
<path d="M223.5 183.5L181.5 184L204 203.5L223.5 183.5Z" fill="#3F3B3C"/>
<path d="M223.5 183.5L204 145.5L181.5 184L223.5 183.5Z" fill="#A4938C"/>
<path d="M181.5 184L204 145.5L130 127L181.5 184Z" fill="#B4A19B"/>
<path d="M122.5 173.5L138.5 194.5L181.5 184L130 127L122.5 173.5Z" fill="#A89A97"/>
<path d="M63 148.5L100.5 183.5L122.5 173.5L130 127L63 148.5Z" fill="#A39089"/>
<path d="M138.5 194.5L122.5 173.5L118 199L138.5 194.5Z" fill="#CDCDCD"/>
<path d="M122.5 173.5L100.5 183.5L118 199L122.5 173.5Z" fill="#888888"/>
<path d="M100.5 183.5L96.5 199C103 198.41 116.4 197.583 118 199L100.5 183.5Z" fill="#202020"/>
<path d="M96.5 199L109.5 221L118 199C116.4 197.583 103 198.41 96.5 199Z" fill="#333333"/>
<path d="M109.5 221L138.5 211.5L118 199L109.5 221Z" fill="#333333"/>
<path d="M138.5 211.5V194.5L118 199L138.5 211.5Z" fill="#202020"/>
<path d="M138.5 194.5V211.5L159 222.5L181.5 184L138.5 194.5Z" fill="#998881"/>
<path d="M181.5 184L159 222.5C173.333 216.167 202.4 203.5 204 203.5L181.5 184Z" fill="#211F20"/>
<path d="M159 325.5L185 346.5L191 314L159 294V325.5Z" fill="#796562"/>
<path d="M185 346.5H204.25L191 314L185 346.5Z" fill="#836F6E"/>
<path d="M223.5 346.5L216.536 314L204.25 346.5H223.5Z" fill="#836F6E"/>
<path d="M223.5 346.5L249.5 325.5V294L216.536 314L223.5 346.5Z" fill="#796562"/>
<path d="M249.5 294V222.5L216.536 314L249.5 294Z" fill="#020001"/>
<path d="M249.5 222.5V294L314.5 278.5L249.5 222.5Z" fill="#9B8681"/>
<path d="M249.5 294V325.5L314.5 278.5L249.5 294Z" fill="#8F7773"/>
<path d="M249.5 325.5L345 302.5L314.5 278.5L249.5 325.5Z" fill="#7C6764"/>
<path d="M345 302.5L376 218L368 199C350.023 225 314.156 277.3 314.5 278.5L345 302.5Z" fill="#816C69"/>
<path d="M311.5 199L298 221L314.5 278.5C314.156 277.3 350.023 225 368 199H311.5Z" fill="#A28984"/>
<path d="M298 221L268.5 211.5L249.5 222.5L314.5 278.5L298 221Z" fill="#AB938F"/>
<path d="M268.5 211.5L298 221L289.5 199L268.5 211.5Z" fill="#2D2D2D"/>
<path d="M298 221L311.5 199H289.5L298 221Z" fill="#2D2D2D"/>
<path d="M306 183.5L289.5 199H311.5L306 183.5Z" fill="#020202"/>
<path d="M289.5 199L306 183.5L285.5 175L289.5 199Z" fill="#888888"/>
<path d="M285.5 175L268.5 194.5L289.5 199L285.5 175Z" fill="#CDCDCD"/>
<path d="M289.5 199L268.5 194.5V211.5L289.5 199Z" fill="#020202"/>
<path d="M268.5 194.5L285.5 175L278.09 127C278.09 128.2 241.697 165.167 223.5 183.5L268.5 194.5Z" fill="#A89A97"/>
<path d="M278.09 127L204 145.5L223.5 183.5C241.697 165.167 278.09 128.2 278.09 127Z" fill="#B4A19B"/>
<path fill-rule="evenodd" clip-rule="evenodd" d="M268.5 194.5V211.5L249.5 222.5L223.5 183.5L268.5 194.5Z" fill="#998881"/>
<path d="M204 203.5L249.5 222.5L223.5 183.5L204 203.5Z" fill="#211F20"/>
<path fill-rule="evenodd" clip-rule="evenodd" d="M0 77L50 34.5L103 45L83 59.5L0 77Z" fill="#B7A5A1"/>
<path d="M130 72.5L103 45L83 59.5L130 72.5Z" fill="#907D76"/>
<path fill-rule="evenodd" clip-rule="evenodd" d="M204 255.5L216.536 314H191L204 255.5Z" fill="#826C69"/>
<path d="M204.25 346.5L216.536 314H191L204.25 346.5Z" fill="#7B6663"/>
</svg>
