<svg width="337" height="329" viewBox="0 0 337 329" fill="none" xmlns="http://www.w3.org/2000/svg">
<path d="M203.141 111.412L312.865 34.0384L261.796 157.701L260.817 160.07L262.773 161.727C273.72 171.005 290.002 184.918 303.274 196.507C309.914 202.305 315.779 207.502 319.841 211.241C320.022 211.407 320.198 211.57 320.371 211.73C311.506 212.381 296.336 213.599 281.527 215.004C270.423 216.057 259.398 217.227 251.219 218.363C247.147 218.928 243.686 219.498 241.251 220.058C240.07 220.33 238.937 220.642 238.063 221.02C237.67 221.19 237.009 221.505 236.432 222.049C235.833 222.613 234.63 224.196 235.455 226.26L235.456 226.261C235.459 226.27 235.488 226.348 235.553 226.538C235.616 226.722 235.698 226.969 235.799 227.278C236.001 227.896 236.269 228.734 236.596 229.774C237.252 231.852 238.138 234.707 239.201 238.16C241.327 245.063 244.155 254.332 247.247 264.506C252.145 280.623 257.702 299.002 262.174 313.824L161.585 233.312L159.849 231.922L157.849 232.894L53.6836 283.494L120.348 204.476L124.74 199.27L117.953 198.702L12.658 189.887L95.6102 147.853L99.0181 146.127L97.0165 142.872L32.6069 38.1578L134.169 114.571L139.167 118.331L139.785 112.108L149.676 12.5521L197.961 110.097L199.783 113.779L203.141 111.412Z" stroke="#F4B118" stroke-width="7.03564"/>
<path d="M206.943 116.412L316.668 39.0384L265.598 162.701L264.62 165.07L266.576 166.727C277.523 176.005 293.805 189.918 307.077 201.507C313.717 207.305 319.581 212.502 323.644 216.241C323.824 216.407 324.001 216.57 324.174 216.73C315.309 217.381 300.138 218.599 285.329 220.004C274.225 221.057 263.2 222.227 255.021 223.363C250.95 223.928 247.489 224.498 245.054 225.058C243.873 225.33 242.74 225.642 241.866 226.02C241.473 226.19 240.812 226.505 240.234 227.049C239.636 227.613 238.432 229.196 239.258 231.26L239.258 231.261C239.262 231.27 239.291 231.348 239.356 231.538C239.419 231.722 239.501 231.969 239.602 232.278C239.804 232.896 240.071 233.734 240.399 234.774C241.054 236.852 241.94 239.707 243.004 243.16C245.13 250.063 247.958 259.332 251.05 269.506C255.948 285.623 261.505 304.002 265.977 318.824L165.387 238.312L163.652 236.922L161.652 237.894L57.4863 288.494L124.151 209.476L128.543 204.27L121.756 203.702L16.4608 194.887L99.4129 152.853L102.821 151.127L100.819 147.872L36.4097 43.1578L137.972 119.571L142.969 123.331L143.588 117.108L153.479 17.5521L201.764 115.097L203.586 118.779L206.943 116.412Z" stroke="#FE005B" stroke-width="7.03564"/>
<path d="M211.358 111.412L321.082 34.0384L270.012 157.701L269.034 160.07L270.99 161.727C281.937 171.005 298.219 184.918 311.491 196.507C318.131 202.305 323.995 207.502 328.058 211.241C328.238 211.407 328.415 211.57 328.588 211.73C319.723 212.381 304.553 213.599 289.743 215.004C278.639 216.057 267.614 217.227 259.435 218.363C255.364 218.928 251.903 219.498 249.468 220.058C248.287 220.33 247.154 220.642 246.28 221.02C245.887 221.19 245.226 221.505 244.648 222.049C244.05 222.613 242.847 224.196 243.672 226.26L243.672 226.261C243.676 226.27 243.705 226.348 243.77 226.538C243.833 226.722 243.915 226.969 244.016 227.278C244.218 227.896 244.485 228.734 244.813 229.774C245.468 231.852 246.354 234.707 247.418 238.16C249.544 245.063 252.372 254.332 255.464 264.506C260.362 280.623 265.919 299.002 270.391 313.824L169.802 233.312L168.066 231.922L166.066 232.894L61.9004 283.494L128.565 204.476L132.957 199.27L126.17 198.702L20.8748 189.887L103.827 147.853L107.235 146.127L105.233 142.872L40.8237 38.1578L142.386 114.571L147.383 118.331L148.002 112.108L157.893 12.5521L206.178 110.097L208 113.779L211.358 111.412Z" fill="#FCF4E5" stroke="black" stroke-width="7.03564"/>
<path d="M193.867 193.379C186.696 185.663 175.75 175.997 158.598 163.023C158.366 162.847 158.358 162.498 158.585 162.316C166.45 156.015 174.422 152.352 180.438 150.401C187.403 130.67 195.229 128.835 203.857 116.845C221.794 89.1076 215.624 73.4238 195.229 83.4529C190.906 85.5787 185.945 88.8595 180.438 93.4256L134.919 143.184C134.798 143.317 134.768 143.511 134.842 143.674C150.742 178.698 180.796 191.404 193.867 193.379Z" fill="#2B0B0E"/>
<path d="M205.426 46.3624C151.545 13.8997 145.419 135.365 115.291 148.388C115.064 148.487 114.962 148.749 115.053 148.979C144.308 222.502 190.392 248.99 215.623 237.192C205.809 220.138 212.281 213.19 193.867 193.379C180.796 191.404 150.742 178.698 134.842 143.674C134.768 143.511 134.798 143.317 134.919 143.184L180.438 93.4256C185.945 88.8595 190.906 85.5787 195.229 83.4529C215.624 73.4238 221.794 89.1076 203.857 116.845C195.229 128.835 187.403 130.67 180.438 150.401C183.913 149.274 186.735 148.719 188.506 148.557C202.55 130.703 232.252 89.6157 238.707 68.1011C246.775 41.2079 223.691 46.3624 217.304 48.0433C212.194 49.388 207.256 47.483 205.426 46.3624Z" fill="#E5071E"/>
<path d="M192.501 53.6236C192.453 53.6414 192.402 53.6502 192.35 53.6505C183.09 53.7131 173.263 64.9075 168.592 71.7796C168.326 72.1712 167.739 71.9507 167.831 71.4863C170.198 59.5352 183.551 48.6241 191.643 48.944C198.762 49.7221 195.797 52.415 192.501 53.6236Z" fill="#F6D1C6"/>
<path d="M205.863 154.05C205.626 154.166 205.34 154.062 205.191 153.845C203.151 150.874 193.358 149.092 188.506 148.557C186.735 148.719 183.913 149.274 180.438 150.401C174.422 152.352 166.45 156.015 158.585 162.316C158.358 162.498 158.366 162.847 158.598 163.023C175.75 175.997 186.696 185.663 193.867 193.379C212.281 213.19 205.809 220.138 215.623 237.192C234.376 252.965 250.658 242.684 256.893 235.131C257.096 234.886 256.955 234.516 256.649 234.428C196.863 217.32 205.092 172.928 216.982 152.247C217.139 151.975 216.972 151.639 216.66 151.607C212.813 151.216 208.159 152.928 205.863 154.05Z" fill="#EE7AAB"/>
<path d="M192.451 146.958C199.457 137.891 209.226 124.569 218.231 110.871C228.21 95.6919 237.418 79.8045 240.746 68.7129C242.821 61.795 243.015 56.5678 241.677 52.6906C240.293 48.6814 237.388 46.4389 234.102 45.3382C230.908 44.2679 227.328 44.2556 224.261 44.5683C221.164 44.8842 218.4 45.5533 216.762 45.9843C212.391 47.1348 208.054 45.4751 206.538 44.5467L206.531 44.5427L206.525 44.5388C199.535 40.3273 193.133 38.5015 187.224 38.7649C181.297 39.0291 176.095 41.3853 171.503 45.1268C162.437 52.514 155.511 65.51 149.496 79.4758C146.607 86.1824 143.891 93.2091 141.239 100.069C141.111 100.399 140.984 100.728 140.857 101.056C138.077 108.246 135.364 115.222 132.562 121.522C129.757 127.83 126.901 133.372 123.861 137.712C120.805 142.073 117.692 145.031 114.447 146.434C113.12 147.008 112.575 148.51 113.075 149.766C127.804 186.782 146.835 212.132 165.536 226.758C183.598 240.885 201.739 245.251 215.284 239.666C224.749 247.204 233.787 248.623 241.399 246.991C249.166 245.325 255.188 240.542 258.535 236.487C259.859 234.883 258.792 232.827 257.234 232.381C227.887 223.983 215.707 209.075 212.003 194.164C208.249 179.05 213.052 163.354 218.828 153.308C219.73 151.739 218.769 149.682 216.875 149.489C214.591 149.257 212.184 149.652 210.127 150.205C208.599 150.616 207.185 151.136 206.044 151.627C205.245 150.908 204.255 150.351 203.3 149.909C201.866 149.244 200.169 148.689 198.452 148.23C196.459 147.698 194.355 147.274 192.451 146.958Z" stroke="black" stroke-width="4.25809"/>
<path d="M179.409 154.509C179.423 154.506 179.436 154.503 179.45 154.499C179.696 154.428 182.176 153.726 183.241 153.832C184.356 153.944 185.157 154.959 185.034 156.073C184.924 157.057 183.689 157.754 183.241 157.866C182.835 157.968 176.584 158.427 173.386 158.107C172.935 158.062 172.703 157.572 172.96 157.199C174.672 154.711 176.591 155.128 179.409 154.509Z" fill="#FAD1D7"/>
<path d="M206.509 162.284C204.601 162.889 202.523 161.772 200.618 161.159C196.661 159.885 189.849 158.841 187.381 158.211C187.298 158.19 187.224 158.154 187.158 158.098C185.962 157.072 186.169 154.812 187.587 153.987C187.666 153.941 187.757 153.919 187.848 153.913C198.847 153.273 204.305 156.065 207.094 159.524C208.361 161.094 207.707 161.904 206.509 162.284Z" fill="#FBD0D7"/>
<ellipse cx="228.846" cy="229.794" rx="5.04248" ry="4.03398" fill="#FCD0D8"/>
<circle cx="185.145" cy="225.648" r="3.69782" fill="#FBCFC6"/>
<circle cx="185.145" cy="225.648" r="3.69782" fill="#FBCFC6"/>
<circle cx="172.595" cy="215.787" r="7.28358" fill="#FBCFC6"/>
<circle cx="172.595" cy="215.787" r="7.28358" fill="#FBCFC6"/>
</svg>
