<svg width="28" height="27" viewBox="0 0 28 27" fill="none" xmlns="http://www.w3.org/2000/svg">
<g filter="url(#filter0_d_371_66)">
<path d="M24.9375 13.3039C27.104 28.2777 1.26346 29.5076 3.10397 13.3039C-4.87157 3.09085 7.0737 -1.88935 11.8374 3.09085C13.5709 2.67576 14.5428 2.63607 16.2763 3.09085C24.9375 -3.83813 31.686 8.25149 24.9375 13.3039Z" fill="#929699"/>
<path d="M24.9375 13.3039C27.104 28.2777 1.26346 29.5076 3.10397 13.3039C-4.87157 3.09085 7.0737 -1.88935 11.8374 3.09085C13.5709 2.67576 14.5428 2.63607 16.2763 3.09085C24.9375 -3.83813 31.686 8.25149 24.9375 13.3039Z" fill="url(#paint0_linear_371_66)"/>
<path d="M24.9375 13.3039C27.104 28.2777 1.26346 29.5076 3.10397 13.3039C-4.87157 3.09085 7.0737 -1.88935 11.8374 3.09085C13.5709 2.67576 14.5428 2.63607 16.2763 3.09085C24.9375 -3.83813 31.686 8.25149 24.9375 13.3039Z" stroke="black" stroke-width="0.461538"/>
<path d="M14.1046 12.116C16.8886 12.2001 18.5588 19.2476 16.406 21.0147C14.9472 22.2122 13.032 22.2122 11.5732 21.0147C9.39695 19.2284 11.2904 12.0309 14.1046 12.116Z" fill="black" stroke="black" stroke-width="0.461538"/>
<path d="M19.2121 12.4189C19.2121 13.1368 18.6301 13.7188 17.9122 13.7188C17.1943 13.7188 16.6124 13.1368 16.6124 12.4189C16.6124 11.701 17.1943 11.119 17.9122 11.119C18.6301 11.119 19.2121 11.701 19.2121 12.4189Z" fill="white" stroke="black" stroke-width="0.461538"/>
<path d="M11.4569 12.4189C11.4569 13.1368 10.8749 13.7188 10.157 13.7188C9.43909 13.7188 8.85711 13.1368 8.85711 12.4189C8.85711 11.701 9.43909 11.119 10.157 11.119C10.8749 11.119 11.4569 11.701 11.4569 12.4189Z" fill="white" stroke="black" stroke-width="0.461538"/>
</g>
<defs>
<filter id="filter0_d_371_66" x="0.198364" y="0.769196" width="27.7188" height="25.3847" filterUnits="userSpaceOnUse" color-interpolation-filters="sRGB">
<feFlood flood-opacity="0" result="BackgroundImageFix"/>
<feColorMatrix in="SourceAlpha" type="matrix" values="0 0 0 0 0 0 0 0 0 0 0 0 0 0 0 0 0 0 127 0" result="hardAlpha"/>
<feOffset dy="0.923077"/>
<feComposite in2="hardAlpha" operator="out"/>
<feColorMatrix type="matrix" values="0 0 0 0 1 0 0 0 0 1 0 0 0 0 1 0 0 0 0.5 0"/>
<feBlend mode="normal" in2="BackgroundImageFix" result="effect1_dropShadow_371_66"/>
<feBlend mode="normal" in="SourceGraphic" in2="effect1_dropShadow_371_66" result="shape"/>
</filter>
<linearGradient id="paint0_linear_371_66" x1="-3.83179" y1="39.7433" x2="28.1547" y2="3.49093" gradientUnits="userSpaceOnUse">
<stop offset="0.26" stop-color="#40F0C1"/>
<stop offset="1" stop-color="#BFFD3E"/>
</linearGradient>
</defs>
</svg>
