<svg width="33" height="34" viewBox="0 0 33 34" fill="none" xmlns="http://www.w3.org/2000/svg">
<g filter="url(#filter0_d_240_171)">
<g clip-path="url(#clip0_240_171)">
<path d="M16.5 29C23.6797 29 29.5 23.1797 29.5 16C29.5 8.8203 23.6797 3 16.5 3C9.3203 3 3.5 8.8203 3.5 16C3.5 23.1797 9.3203 29 16.5 29Z" fill="url(#paint0_linear_240_171)"/>
<path fill-rule="evenodd" clip-rule="evenodd" d="M9.38472 15.8628C13.1745 14.2117 15.7016 13.1232 16.966 12.5972C20.5763 11.0956 21.3264 10.8348 21.8154 10.8261C21.9229 10.8242 22.1634 10.8509 22.3192 10.9773C22.4507 11.084 22.4869 11.2282 22.5042 11.3293C22.5215 11.4305 22.543 11.661 22.5259 11.8411C22.3303 13.8967 21.4837 18.8851 21.0531 21.1874C20.8708 22.1616 20.512 22.4883 20.1646 22.5203C19.4097 22.5897 18.8364 22.0213 18.1053 21.542C16.9611 20.792 16.3147 20.3251 15.2041 19.5932C13.9206 18.7474 14.7526 18.2826 15.4841 17.5228C15.6755 17.324 19.0018 14.2985 19.0662 14.0241C19.0742 13.9897 19.0817 13.8618 19.0057 13.7942C18.9297 13.7267 18.8175 13.7498 18.7365 13.7681C18.6218 13.7942 16.7939 15.0023 13.253 17.3925C12.7342 17.7488 12.2643 17.9224 11.8432 17.9133C11.3791 17.9032 10.4862 17.6508 9.82244 17.4351C9.00831 17.1704 8.36126 17.0305 8.4176 16.5811C8.44695 16.347 8.76932 16.1075 9.38472 15.8628Z" fill="white"/>
</g>
</g>
<defs>
<filter id="filter0_d_240_171" x="0.219047" y="0.957143" width="32.5619" height="32.5619" filterUnits="userSpaceOnUse" color-interpolation-filters="sRGB">
<feFlood flood-opacity="0" result="BackgroundImageFix"/>
<feColorMatrix in="SourceAlpha" type="matrix" values="0 0 0 0 0 0 0 0 0 0 0 0 0 0 0 0 0 0 127 0" result="hardAlpha"/>
<feOffset dy="1.2381"/>
<feGaussianBlur stdDeviation="1.64048"/>
<feComposite in2="hardAlpha" operator="out"/>
<feColorMatrix type="matrix" values="0 0 0 0 0 0 0 0 0 0 0 0 0 0 0 0 0 0 0.25 0"/>
<feBlend mode="normal" in2="BackgroundImageFix" result="effect1_dropShadow_240_171"/>
<feBlend mode="normal" in="SourceGraphic" in2="effect1_dropShadow_240_171" result="shape"/>
</filter>
<linearGradient id="paint0_linear_240_171" x1="1303.5" y1="3" x2="1303.5" y2="2583.72" gradientUnits="userSpaceOnUse">
<stop stop-color="#2AABEE"/>
<stop offset="1" stop-color="#229ED9"/>
</linearGradient>
<clipPath id="clip0_240_171">
<rect x="3.5" y="3" width="26" height="26" rx="13" fill="white"/>
</clipPath>
</defs>
</svg>
