<svg width="329" height="62" viewBox="0 0 329 62" fill="none" xmlns="http://www.w3.org/2000/svg">
<mask id="path-1-outside-1_740_95" maskUnits="userSpaceOnUse" x="-2" y="11.7554" width="33" height="37" fill="black">
<rect fill="white" x="-2" y="11.7554" width="33" height="37"/>
<path d="M27.317 28.0464H23.305V32.2354H19.116V44.9204H10.561V32.4714H6.372V28.2234H2.124V15.5384H10.443V28.0464H18.821V15.5384H27.317V28.0464Z"/>
</mask>
<path d="M27.317 28.0464H23.305V32.2354H19.116V44.9204H10.561V32.4714H6.372V28.2234H2.124V15.5384H10.443V28.0464H18.821V15.5384H27.317V28.0464Z" fill="white"/>
<path d="M27.317 28.0464V31.5608H30.8314V28.0464H27.317ZM23.305 28.0464V24.5319H19.7906V28.0464H23.305ZM23.305 32.2354V35.7498H26.8194V32.2354H23.305ZM19.116 32.2354V28.7209H15.6016V32.2354H19.116ZM19.116 44.9204V48.4348H22.6304V44.9204H19.116ZM10.561 44.9204H7.04657V48.4348H10.561V44.9204ZM10.561 32.4714H14.0754V28.9569H10.561V32.4714ZM6.372 32.4714H2.85757V35.9858H6.372V32.4714ZM6.372 28.2234H9.88643V24.7089H6.372V28.2234ZM2.124 28.2234H-1.39043V31.7378H2.124V28.2234ZM2.124 15.5384V12.0239H-1.39043V15.5384H2.124ZM10.443 15.5384H13.9574V12.0239H10.443V15.5384ZM10.443 28.0464H6.92857V31.5608H10.443V28.0464ZM18.821 28.0464V31.5608H22.3354V28.0464H18.821ZM18.821 15.5384V12.0239H15.3066V15.5384H18.821ZM27.317 15.5384H30.8314V12.0239H27.317V15.5384ZM27.317 24.5319H23.305V31.5608H27.317V24.5319ZM19.7906 28.0464V32.2354H26.8194V28.0464H19.7906ZM23.305 28.7209H19.116V35.7498H23.305V28.7209ZM15.6016 32.2354V44.9204H22.6304V32.2354H15.6016ZM19.116 41.4059H10.561V48.4348H19.116V41.4059ZM14.0754 44.9204V32.4714H7.04657V44.9204H14.0754ZM10.561 28.9569H6.372V35.9858H10.561V28.9569ZM9.88643 32.4714V28.2234H2.85757V32.4714H9.88643ZM6.372 24.7089H2.124V31.7378H6.372V24.7089ZM5.63843 28.2234V15.5384H-1.39043V28.2234H5.63843ZM2.124 19.0528H10.443V12.0239H2.124V19.0528ZM6.92857 15.5384V28.0464H13.9574V15.5384H6.92857ZM10.443 31.5608H18.821V24.5319H10.443V31.5608ZM22.3354 28.0464V15.5384H15.3066V28.0464H22.3354ZM18.821 19.0528H27.317V12.0239H18.821V19.0528ZM23.8026 15.5384V28.0464H30.8314V15.5384H23.8026Z" fill="black" mask="url(#path-1-outside-1_740_95)"/>
<mask id="path-3-outside-2_740_95" maskUnits="userSpaceOnUse" x="51" y="11.7554" width="37" height="37" fill="black">
<rect fill="white" x="51" y="11.7554" width="37" height="37"/>
<path d="M84.441 40.6724H80.429V44.9204H59.307V40.9084H55.059V15.5384H63.378V40.6724H75.945V15.5384H84.441V40.6724Z"/>
</mask>
<path d="M84.441 40.6724H80.429V44.9204H59.307V40.9084H55.059V15.5384H63.378V40.6724H75.945V15.5384H84.441V40.6724Z" fill="white"/>
<path d="M84.441 40.6724V44.1868H87.9554V40.6724H84.441ZM80.429 40.6724V37.1579H76.9146V40.6724H80.429ZM80.429 44.9204V48.4348H83.9434V44.9204H80.429ZM59.307 44.9204H55.7926V48.4348H59.307V44.9204ZM59.307 40.9084H62.8214V37.3939H59.307V40.9084ZM55.059 40.9084H51.5446V44.4228H55.059V40.9084ZM55.059 15.5384V12.0239H51.5446V15.5384H55.059ZM63.378 15.5384H66.8924V12.0239H63.378V15.5384ZM63.378 40.6724H59.8636V44.1868H63.378V40.6724ZM75.945 40.6724V44.1868H79.4594V40.6724H75.945ZM75.945 15.5384V12.0239H72.4306V15.5384H75.945ZM84.441 15.5384H87.9554V12.0239H84.441V15.5384ZM84.441 37.1579H80.429V44.1868H84.441V37.1579ZM76.9146 40.6724V44.9204H83.9434V40.6724H76.9146ZM80.429 41.4059H59.307V48.4348H80.429V41.4059ZM62.8214 44.9204V40.9084H55.7926V44.9204H62.8214ZM59.307 37.3939H55.059V44.4228H59.307V37.3939ZM58.5734 40.9084V15.5384H51.5446V40.9084H58.5734ZM55.059 19.0528H63.378V12.0239H55.059V19.0528ZM59.8636 15.5384V40.6724H66.8924V15.5384H59.8636ZM63.378 44.1868H75.945V37.1579H63.378V44.1868ZM79.4594 40.6724V15.5384H72.4306V40.6724H79.4594ZM75.945 19.0528H84.441V12.0239H75.945V19.0528ZM80.9266 15.5384V40.6724H87.9554V15.5384H80.9266Z" fill="black" mask="url(#path-3-outside-2_740_95)"/>
<mask id="path-5-outside-3_740_95" maskUnits="userSpaceOnUse" x="106" y="11.7554" width="37" height="37" fill="black">
<rect fill="white" x="106" y="11.7554" width="37" height="37"/>
<path d="M139.441 44.9204H131.122V32.3534H126.992V36.4834H122.744V32.3534H118.614V44.9204H110.059V15.5384H118.378V19.5504H122.626V23.8574H126.697V19.7274H130.945V15.5384H139.441V44.9204Z"/>
</mask>
<path d="M139.441 44.9204H131.122V32.3534H126.992V36.4834H122.744V32.3534H118.614V44.9204H110.059V15.5384H118.378V19.5504H122.626V23.8574H126.697V19.7274H130.945V15.5384H139.441V44.9204Z" fill="white"/>
<path d="M139.441 44.9204V48.4348H142.955V44.9204H139.441ZM131.122 44.9204H127.608V48.4348H131.122V44.9204ZM131.122 32.3534H134.636V28.8389H131.122V32.3534ZM126.992 32.3534V28.8389H123.478V32.3534H126.992ZM126.992 36.4834V39.9978H130.506V36.4834H126.992ZM122.744 36.4834H119.23V39.9978H122.744V36.4834ZM122.744 32.3534H126.258V28.8389H122.744V32.3534ZM118.614 32.3534V28.8389H115.1V32.3534H118.614ZM118.614 44.9204V48.4348H122.128V44.9204H118.614ZM110.059 44.9204H106.545V48.4348H110.059V44.9204ZM110.059 15.5384V12.0239H106.545V15.5384H110.059ZM118.378 15.5384H121.892V12.0239H118.378V15.5384ZM118.378 19.5504H114.864V23.0648H118.378V19.5504ZM122.626 19.5504H126.14V16.0359H122.626V19.5504ZM122.626 23.8574H119.112V27.3718H122.626V23.8574ZM126.697 23.8574V27.3718H130.211V23.8574H126.697ZM126.697 19.7274V16.2129H123.183V19.7274H126.697ZM130.945 19.7274V23.2418H134.459V19.7274H130.945ZM130.945 15.5384V12.0239H127.431V15.5384H130.945ZM139.441 15.5384H142.955V12.0239H139.441V15.5384ZM139.441 41.4059H131.122V48.4348H139.441V41.4059ZM134.636 44.9204V32.3534H127.608V44.9204H134.636ZM131.122 28.8389H126.992V35.8678H131.122V28.8389ZM123.478 32.3534V36.4834H130.506V32.3534H123.478ZM126.992 32.9689H122.744V39.9978H126.992V32.9689ZM126.258 36.4834V32.3534H119.23V36.4834H126.258ZM122.744 28.8389H118.614V35.8678H122.744V28.8389ZM115.1 32.3534V44.9204H122.128V32.3534H115.1ZM118.614 41.4059H110.059V48.4348H118.614V41.4059ZM113.573 44.9204V15.5384H106.545V44.9204H113.573ZM110.059 19.0528H118.378V12.0239H110.059V19.0528ZM114.864 15.5384V19.5504H121.892V15.5384H114.864ZM118.378 23.0648H122.626V16.0359H118.378V23.0648ZM119.112 19.5504V23.8574H126.14V19.5504H119.112ZM122.626 27.3718H126.697V20.3429H122.626V27.3718ZM130.211 23.8574V19.7274H123.183V23.8574H130.211ZM126.697 23.2418H130.945V16.2129H126.697V23.2418ZM134.459 19.7274V15.5384H127.431V19.7274H134.459ZM130.945 19.0528H139.441V12.0239H130.945V19.0528ZM135.927 15.5384V44.9204H142.955V15.5384H135.927Z" fill="black" mask="url(#path-5-outside-3_740_95)"/>
<mask id="path-7-outside-4_740_95" maskUnits="userSpaceOnUse" x="161" y="11.7554" width="37" height="37" fill="black">
<rect fill="white" x="161" y="11.7554" width="37" height="37"/>
<path d="M194.441 44.9204H186.122V32.3534H181.992V36.4834H177.744V32.3534H173.614V44.9204H165.059V15.5384H173.378V19.5504H177.626V23.8574H181.697V19.7274H185.945V15.5384H194.441V44.9204Z"/>
</mask>
<path d="M194.441 44.9204H186.122V32.3534H181.992V36.4834H177.744V32.3534H173.614V44.9204H165.059V15.5384H173.378V19.5504H177.626V23.8574H181.697V19.7274H185.945V15.5384H194.441V44.9204Z" fill="white"/>
<path d="M194.441 44.9204V48.4348H197.955V44.9204H194.441ZM186.122 44.9204H182.608V48.4348H186.122V44.9204ZM186.122 32.3534H189.636V28.8389H186.122V32.3534ZM181.992 32.3534V28.8389H178.478V32.3534H181.992ZM181.992 36.4834V39.9978H185.506V36.4834H181.992ZM177.744 36.4834H174.23V39.9978H177.744V36.4834ZM177.744 32.3534H181.258V28.8389H177.744V32.3534ZM173.614 32.3534V28.8389H170.1V32.3534H173.614ZM173.614 44.9204V48.4348H177.128V44.9204H173.614ZM165.059 44.9204H161.545V48.4348H165.059V44.9204ZM165.059 15.5384V12.0239H161.545V15.5384H165.059ZM173.378 15.5384H176.892V12.0239H173.378V15.5384ZM173.378 19.5504H169.864V23.0648H173.378V19.5504ZM177.626 19.5504H181.14V16.0359H177.626V19.5504ZM177.626 23.8574H174.112V27.3718H177.626V23.8574ZM181.697 23.8574V27.3718H185.211V23.8574H181.697ZM181.697 19.7274V16.2129H178.183V19.7274H181.697ZM185.945 19.7274V23.2418H189.459V19.7274H185.945ZM185.945 15.5384V12.0239H182.431V15.5384H185.945ZM194.441 15.5384H197.955V12.0239H194.441V15.5384ZM194.441 41.4059H186.122V48.4348H194.441V41.4059ZM189.636 44.9204V32.3534H182.608V44.9204H189.636ZM186.122 28.8389H181.992V35.8678H186.122V28.8389ZM178.478 32.3534V36.4834H185.506V32.3534H178.478ZM181.992 32.9689H177.744V39.9978H181.992V32.9689ZM181.258 36.4834V32.3534H174.23V36.4834H181.258ZM177.744 28.8389H173.614V35.8678H177.744V28.8389ZM170.1 32.3534V44.9204H177.128V32.3534H170.1ZM173.614 41.4059H165.059V48.4348H173.614V41.4059ZM168.573 44.9204V15.5384H161.545V44.9204H168.573ZM165.059 19.0528H173.378V12.0239H165.059V19.0528ZM169.864 15.5384V19.5504H176.892V15.5384H169.864ZM173.378 23.0648H177.626V16.0359H173.378V23.0648ZM174.112 19.5504V23.8574H181.14V19.5504H174.112ZM177.626 27.3718H181.697V20.3429H177.626V27.3718ZM185.211 23.8574V19.7274H178.183V23.8574H185.211ZM181.697 23.2418H185.945V16.2129H181.697V23.2418ZM189.459 19.7274V15.5384H182.431V19.7274H189.459ZM185.945 19.0528H194.441V12.0239H185.945V19.0528ZM190.927 15.5384V44.9204H197.955V15.5384H190.927Z" fill="black" mask="url(#path-7-outside-4_740_95)"/>
<mask id="path-9-outside-5_740_95" maskUnits="userSpaceOnUse" x="218" y="11.7554" width="33" height="37" fill="black">
<rect fill="white" x="218" y="11.7554" width="33" height="37"/>
<path d="M247.317 28.0464H243.305V32.2354H239.116V44.9204H230.561V32.4714H226.372V28.2234H222.124V15.5384H230.443V28.0464H238.821V15.5384H247.317V28.0464Z"/>
</mask>
<path d="M247.317 28.0464H243.305V32.2354H239.116V44.9204H230.561V32.4714H226.372V28.2234H222.124V15.5384H230.443V28.0464H238.821V15.5384H247.317V28.0464Z" fill="white"/>
<path d="M247.317 28.0464V31.5608H250.831V28.0464H247.317ZM243.305 28.0464V24.5319H239.791V28.0464H243.305ZM243.305 32.2354V35.7498H246.819V32.2354H243.305ZM239.116 32.2354V28.7209H235.602V32.2354H239.116ZM239.116 44.9204V48.4348H242.63V44.9204H239.116ZM230.561 44.9204H227.047V48.4348H230.561V44.9204ZM230.561 32.4714H234.075V28.9569H230.561V32.4714ZM226.372 32.4714H222.858V35.9858H226.372V32.4714ZM226.372 28.2234H229.886V24.7089H226.372V28.2234ZM222.124 28.2234H218.61V31.7378H222.124V28.2234ZM222.124 15.5384V12.0239H218.61V15.5384H222.124ZM230.443 15.5384H233.957V12.0239H230.443V15.5384ZM230.443 28.0464H226.929V31.5608H230.443V28.0464ZM238.821 28.0464V31.5608H242.335V28.0464H238.821ZM238.821 15.5384V12.0239H235.307V15.5384H238.821ZM247.317 15.5384H250.831V12.0239H247.317V15.5384ZM247.317 24.5319H243.305V31.5608H247.317V24.5319ZM239.791 28.0464V32.2354H246.819V28.0464H239.791ZM243.305 28.7209H239.116V35.7498H243.305V28.7209ZM235.602 32.2354V44.9204H242.63V32.2354H235.602ZM239.116 41.4059H230.561V48.4348H239.116V41.4059ZM234.075 44.9204V32.4714H227.047V44.9204H234.075ZM230.561 28.9569H226.372V35.9858H230.561V28.9569ZM229.886 32.4714V28.2234H222.858V32.4714H229.886ZM226.372 24.7089H222.124V31.7378H226.372V24.7089ZM225.638 28.2234V15.5384H218.61V28.2234H225.638ZM222.124 19.0528H230.443V12.0239H222.124V19.0528ZM226.929 15.5384V28.0464H233.957V15.5384H226.929ZM230.443 31.5608H238.821V24.5319H230.443V31.5608ZM242.335 28.0464V15.5384H235.307V28.0464H242.335ZM238.821 19.0528H247.317V12.0239H238.821V19.0528ZM243.803 15.5384V28.0464H250.831V15.5384H243.803Z" fill="black" mask="url(#path-9-outside-5_740_95)"/>
<mask id="path-11-outside-6_740_95" maskUnits="userSpaceOnUse" x="273" y="7.25537" width="35" height="46" fill="black">
<rect fill="white" x="273" y="7.25537" width="35" height="46"/>
<path d="M303.728 22.1074H298.56V27.5794H293.088V32.9754H287.692V38.4474H282.144V22.3354H287.54V11.4674H303.728V22.1074ZM281.992 49.3154H276.748V43.9954H281.992V49.3154Z"/>
</mask>
<path d="M303.728 22.1074H298.56V27.5794H293.088V32.9754H287.692V38.4474H282.144V22.3354H287.54V11.4674H303.728V22.1074ZM281.992 49.3154H276.748V43.9954H281.992V49.3154Z" fill="white"/>
<path d="M303.728 22.1074V25.6218H307.242V22.1074H303.728ZM298.56 22.1074V18.5929H295.046V22.1074H298.56ZM298.56 27.5794V31.0938H302.074V27.5794H298.56ZM293.088 27.5794V24.0649H289.574V27.5794H293.088ZM293.088 32.9754V36.4898H296.602V32.9754H293.088ZM287.692 32.9754V29.4609H284.178V32.9754H287.692ZM287.692 38.4474V41.9618H291.206V38.4474H287.692ZM282.144 38.4474H278.63V41.9618H282.144V38.4474ZM282.144 22.3354V18.8209H278.63V22.3354H282.144ZM287.54 22.3354V25.8498H291.054V22.3354H287.54ZM287.54 11.4674V7.95294H284.026V11.4674H287.54ZM303.728 11.4674H307.242V7.95294H303.728V11.4674ZM281.992 49.3154V52.8298H285.506V49.3154H281.992ZM276.748 49.3154H273.234V52.8298H276.748V49.3154ZM276.748 43.9954V40.4809H273.234V43.9954H276.748ZM281.992 43.9954H285.506V40.4809H281.992V43.9954ZM303.728 18.5929H298.56V25.6218H303.728V18.5929ZM295.046 22.1074V27.5794H302.074V22.1074H295.046ZM298.56 24.0649H293.088V31.0938H298.56V24.0649ZM289.574 27.5794V32.9754H296.602V27.5794H289.574ZM293.088 29.4609H287.692V36.4898H293.088V29.4609ZM284.178 32.9754V38.4474H291.206V32.9754H284.178ZM287.692 34.9329H282.144V41.9618H287.692V34.9329ZM285.658 38.4474V22.3354H278.63V38.4474H285.658ZM282.144 25.8498H287.54V18.8209H282.144V25.8498ZM291.054 22.3354V11.4674H284.026V22.3354H291.054ZM287.54 14.9818H303.728V7.95294H287.54V14.9818ZM300.214 11.4674V22.1074H307.242V11.4674H300.214ZM281.992 45.8009H276.748V52.8298H281.992V45.8009ZM280.262 49.3154V43.9954H273.234V49.3154H280.262ZM276.748 47.5098H281.992V40.4809H276.748V47.5098ZM278.478 43.9954V49.3154H285.506V43.9954H278.478Z" fill="black" mask="url(#path-11-outside-6_740_95)"/>
</svg>
